<?xml version="1.0" encoding="UTF-8"?>
<svg id="Layer_1" data-name="Layer 1" xmlns="http://www.w3.org/2000/svg" viewBox="0 0 2708.74 2708.7">
  <defs>
    <style>
      .cls-1 {
        fill: #fff;
      }

      .cls-2 {
        fill: #ff67a0;
      }
    </style>
  </defs>
  <path class="cls-2" d="m2708.74,1354.37c0,747.99-606.34,1354.33-1354.37,1354.33S0,2102.36,0,1354.37,606.38,0,1354.37,0s1354.37,606.38,1354.37,1354.37"/>
  <path class="cls-1" d="m1031.88,1666.24h0c0,78.01-79.9,130.45-151.48,99.45l-604.08-261.8c-56.89-24.66-93.69-80.76-93.69-142.76s36.8-118.1,93.69-142.8l604.08-261.76c71.58-31.04,151.48,21.41,151.48,99.41v1.11c0,44.83-27.58,85.04-69.44,101.14l-522.33,201.21,523.11,205.94c41.41,16.3,68.66,56.31,68.66,100.85"/>
  <path class="cls-1" d="m1557,885.81l-236.4,973.36c-7.9,32.11-14.78,57.42-20.67,75.99-5.93,18.57-14.94,33.1-27,43.51-12.14,10.41-29.72,15.6-52.77,15.6-57.42,0-86.12-24.74-86.12-74.26,0-12.97,5.6-45.32,16.88-97.11l235.54-973.4c12.35-51.78,24.16-87.23,35.48-106.37,11.24-19.14,33.18-28.69,65.78-28.69,28.16,0,49.68,6.75,64.63,20.25,14.9,13.5,22.35,32.07,22.35,55.74,0,17.41-5.89,49.23-17.7,95.38"/>
  <path class="cls-1" d="m2432.58,1503.63l-606.1,263.86c-71.01,30.96-150.45-21.12-150.45-98.59v-1.48c0-44.25,27.09-83.97,68.25-100.11l525.21-206.23-524.71-203.02c-41.45-16.01-68.74-55.86-68.74-100.27,0-77.31,79.16-129.38,150.17-98.71l605.93,261.39c56.56,24.41,93.19,80.06,93.19,141.65s-36.43,116.99-92.74,141.52"/>
</svg>